<?xml version="1.0" standalone="no"?><!DOCTYPE svg PUBLIC "-//W3C//DTD SVG 1.1//EN" "http://www.w3.org/Graphics/SVG/1.1/DTD/svg11.dtd"><svg t="1553489757517" class="icon" style="" viewBox="0 0 1024 1024" version="1.1" xmlns="http://www.w3.org/2000/svg" p-id="11792" xmlns:xlink="http://www.w3.org/1999/xlink" width="200" height="200"><defs><style type="text/css"></style></defs><path d="M453.9392 40.96H60.2112a24.576 24.576 0 0 0-24.576 24.576v393.4208a24.576 24.576 0 0 0 24.576 24.576h393.728a24.576 24.576 0 0 0 24.576-24.576V65.2288A24.576 24.576 0 0 0 453.9392 40.96z m-24.576 393.728H84.7872V89.8048h344.576z" fill="" p-id="11793"></path><path d="M183.296 360.5504h147.6608a24.576 24.576 0 0 0 24.576-24.576V188.3136a24.576 24.576 0 0 0-24.576-24.576H183.296a24.576 24.576 0 0 0-24.576 24.576v147.6608a24.576 24.576 0 0 0 24.576 24.576z m24.576-147.6608h98.4064v98.4064H207.872zM453.9392 540.4672H60.2112a24.576 24.576 0 0 0-24.576 24.576v393.728A24.576 24.576 0 0 0 60.2112 983.04h393.728a24.576 24.576 0 0 0 24.576-24.576V565.0432a24.576 24.576 0 0 0-24.576-24.576z m-24.576 393.728H84.7872V589.6192h344.576zM570.0608 795.2384a24.576 24.576 0 0 0 24.576-24.576V589.6192h172.2368a24.576 24.576 0 1 0 0-49.2544H570.0608a24.576 24.576 0 0 0-24.576 24.576v205.7216a24.576 24.576 0 0 0 24.576 24.576zM659.2512 934.1952h-64.6144v-45.1584a24.576 24.576 0 0 0-49.2544 0v69.7344a24.576 24.576 0 0 0 24.576 24.576h89.1904a24.576 24.576 0 1 0 0-49.2544zM963.7888 728.576a24.576 24.576 0 0 0-24.576 24.576v181.0432H803.84a24.576 24.576 0 1 0 0 49.2544h159.9488a24.576 24.576 0 0 0 24.576-24.576V753.2544a24.576 24.576 0 0 0-24.576-24.6784zM963.7888 540.4672H890.88a24.576 24.576 0 0 0 0 49.2544h48.2304v56.6272H786.944a24.576 24.576 0 1 0 0 49.2544h174.08a24.3712 24.3712 0 0 0 7.168-1.2288 24.576 24.576 0 0 0 19.7632-24.1664V565.0432a24.576 24.576 0 0 0-24.1664-24.576z" fill="" p-id="11794"></path><path d="M183.296 860.16h147.6608a24.576 24.576 0 0 0 24.576-24.576V688.0256a24.576 24.576 0 0 0-24.576-24.576H183.296a24.576 24.576 0 0 0-24.576 24.576v147.6608A24.576 24.576 0 0 0 183.296 860.16z m24.576-147.456h98.4064v98.4064H207.872zM963.7888 40.96H570.0608a24.576 24.576 0 0 0-24.576 24.576v393.4208a24.576 24.576 0 0 0 24.576 24.576h393.728a24.576 24.576 0 0 0 24.576-24.576V65.2288A24.576 24.576 0 0 0 963.7888 40.96z m-24.576 393.728H594.6368V89.8048h344.576z" fill="" p-id="11795"></path><path d="M693.0432 360.5504H840.704a24.576 24.576 0 0 0 24.576-24.576V188.3136A24.576 24.576 0 0 0 840.704 163.84H693.0432a24.576 24.576 0 0 0-24.576 24.576v147.5584a24.576 24.576 0 0 0 24.576 24.576z m24.576-147.6608h98.5088v98.4064h-98.4064zM668.4672 617.5744a24.576 24.576 0 0 0-24.576 24.576v57.4464a24.576 24.576 0 1 0 49.2544 0v-57.4464a24.576 24.576 0 0 0-24.6784-24.576zM843.0592 847.5648a24.576 24.576 0 1 0 0-49.2544H727.04a24.576 24.576 0 0 0-24.576 24.576v135.8848a24.576 24.576 0 0 0 49.2544 0V847.5648z" fill="" p-id="11796"></path></svg>