<?xml version="1.0" standalone="no"?><!DOCTYPE svg PUBLIC "-//W3C//DTD SVG 1.1//EN" "http://www.w3.org/Graphics/SVG/1.1/DTD/svg11.dtd"><svg t="1553439054034" class="icon" style="" viewBox="0 0 1024 1024" version="1.1" xmlns="http://www.w3.org/2000/svg" p-id="2182" xmlns:xlink="http://www.w3.org/1999/xlink" width="200" height="200"><defs><style type="text/css"></style></defs><path d="M215.524147 428.411233l0 172.470073c0 7.621585-6.167466 13.790074-13.790074 13.790074s-13.790074-6.167466-13.790074-13.790074L187.943998 428.411233c0-7.621585 6.167466-13.790074 13.790074-13.790074S215.524147 420.788625 215.524147 428.411233zM312.050574 414.621159c-7.621585 0-13.790074 6.167466-13.790074 13.790074l0 172.470073c0 7.621585 6.167466 13.790074 13.790074 13.790074s13.790074-6.167466 13.790074-13.790074L325.840648 428.411233C325.840648 420.788625 319.673182 414.621159 312.050574 414.621159zM422.367075 414.621159c-7.621585 0-13.790074 6.167466-13.790074 13.790074l0 172.470073c0 7.621585 6.167466 13.790074 13.790074 13.790074s13.790074-6.167466 13.790074-13.790074L436.157149 428.411233C436.157149 420.788625 429.98866 414.621159 422.367075 414.621159zM546.472628 414.621159c-7.621585 0-13.790074 6.167466-13.790074 13.790074l0 172.470073c0 7.621585 6.167466 13.790074 13.790074 13.790074s13.790074-6.167466 13.790074-13.790074L560.262702 428.411233C560.262702 420.788625 554.095235 414.621159 546.472628 414.621159zM960.159508 615.396905l-55.158251 0 0 31.511691c0 29.895891-24.333198 51.253314-54.229089 51.253314L118.054231 698.16191c-29.894867 0-54.214762-21.357424-54.214762-51.253314L63.839469 382.38292c0-29.895891 24.320918-56.545854 54.214762-56.545854l732.716914 0c29.895891 0 54.229089 26.649963 54.229089 56.545854l0 39.980573 55.158251 0L960.158485 615.396905zM877.421108 380.053875c0-14.719236-11.930727-26.63666-26.635637-26.63666L118.054231 353.417215c-14.718213 0-26.635637 11.917424-26.635637 26.63666l0 263.892249c0 14.705933 11.917424 26.63666 26.635637 26.63666l732.73124 0c14.70491 0 26.635637-11.930727 26.635637-26.63666L877.421108 380.053875zM932.580383 449.943642l-13.790074 0 0 137.901767 13.790074 0L932.580383 449.943642z" p-id="2183" fill="#e6e6e6"></path></svg>