<?xml version="1.0" standalone="no"?><!DOCTYPE svg PUBLIC "-//W3C//DTD SVG 1.1//EN" "http://www.w3.org/Graphics/SVG/1.1/DTD/svg11.dtd"><svg t="1553489595025" class="icon" style="" viewBox="0 0 1024 1024" version="1.1" xmlns="http://www.w3.org/2000/svg" p-id="8779" xmlns:xlink="http://www.w3.org/1999/xlink" width="200" height="200"><defs><style type="text/css"></style></defs><path d="M232.533333 883.2l-59.733333-59.733333 245.333333-243.2 123.733334 121.6 17.066666 17.066666-55.466666 64-21.333334-19.2-64-64z" fill="#29ABE2" p-id="8780"></path><path d="M533.333333 755.2l-59.733333-59.733333 243.2-243.2 209.066667 209.066666-59.733334 59.733334-149.333333-149.333334z" fill="#29ABE2" p-id="8781"></path><path d="M341.333333 384m-85.333333 0a85.333333 85.333333 0 1 0 170.666667 0 85.333333 85.333333 0 1 0-170.666667 0Z" fill="#29ABE2" p-id="8782"></path><path d="M938.666667 896H85.333333V128h853.333334v768zM170.666667 810.666667h682.666666V213.333333H170.666667v597.333334z" fill="" p-id="8783"></path></svg>