<?xml version="1.0" standalone="no"?><!DOCTYPE svg PUBLIC "-//W3C//DTD SVG 1.1//EN" "http://www.w3.org/Graphics/SVG/1.1/DTD/svg11.dtd"><svg t="1553478945937" class="icon" style="" viewBox="0 0 1024 1024" version="1.1" xmlns="http://www.w3.org/2000/svg" p-id="2398" xmlns:xlink="http://www.w3.org/1999/xlink" width="200" height="200"><defs><style type="text/css"></style></defs><path d="M768 588.8v-204.8c0-140.8-115.2-256-256-256S256 243.2 256 384v204.8l-102.4 204.8h232.96c12.8 58.88 64 102.4 125.44 102.4 61.44 0 112.64-43.52 125.44-102.4H870.4l-102.4-204.8zM512 844.8c-33.28 0-61.44-20.48-71.68-51.2h143.36c-10.24 30.72-38.4 51.2-71.68 51.2zM230.4 742.4l76.8-153.6v-204.8c0-112.64 92.16-204.8 204.8-204.8s204.8 92.16 204.8 204.8v204.8l76.8 153.6H230.4z" p-id="2399"></path></svg>