<?xml version="1.0" standalone="no"?><!DOCTYPE svg PUBLIC "-//W3C//DTD SVG 1.1//EN" "http://www.w3.org/Graphics/SVG/1.1/DTD/svg11.dtd"><svg class="icon" width="200px" height="200.00px" viewBox="0 0 1024 1024" version="1.1" xmlns="http://www.w3.org/2000/svg"><path d="M62.976 62.976l0 897.705 897.705 0L960.681 62.976 62.976 62.976zM320.933 451.395c-0.885 37.212 6.212 93.017-38.098 93.032-30.126 0.011-31.011-36.331-31.011-36.331l-19.492-178.972c0 0-14.178-93.918 120.497-96.576 134.676-2.659 148.85 114.295 148.85 114.295l113.413 0c0 0 26.575 5.316 25.693 37.214-0.888 31.896-22.151 31.009-22.151 31.009l-264.918 0.003C353.714 415.069 321.818 414.182 320.933 451.395zM670.501 793.377C535.823 796.034 521.65 679.08 521.65 679.08L408.237 679.08c0 0-26.577-5.316-25.692-37.214 0.885-31.896 22.15-31.014 22.15-31.014l264.917 0c0 0 31.894 0.888 32.782-36.325 0.888-37.215-6.209-93.017 38.1-93.032 30.122-0.01 31.009 36.326 31.009 36.326l19.493 178.978C790.996 696.799 805.175 790.719 670.501 793.377z" /></svg>