<?xml version="1.0" standalone="no"?><!DOCTYPE svg PUBLIC "-//W3C//DTD SVG 1.1//EN" "http://www.w3.org/Graphics/SVG/1.1/DTD/svg11.dtd"><svg t="1553442358234" class="icon" style="" viewBox="0 0 1024 1024" version="1.1" xmlns="http://www.w3.org/2000/svg" p-id="3296" xmlns:xlink="http://www.w3.org/1999/xlink" width="200" height="200"><defs><style type="text/css"></style></defs><path d="M640 0A384 384 0 0 0 300.48 563.52l-266.88 266.88a112.96 112.96 0 1 0 160 160H192l266.88-266.88A384 384 0 1 0 640 0zM153.28 950.08A56.32 56.32 0 1 1 73.6 870.4l258.24-258.24a387.2 387.2 0 0 0 79.68 80zM640 704a320 320 0 1 1 320-320 320 320 0 0 1-320 320z" fill="#343231" p-id="3297"></path><path d="M640 160a224 224 0 0 0-224 224 16 16 0 0 0 32 0 192 192 0 0 1 192-192 16 16 0 0 0 0-32z" fill="#343231" p-id="3298"></path></svg>