<?xml version="1.0" standalone="no"?><!DOCTYPE svg PUBLIC "-//W3C//DTD SVG 1.1//EN" "http://www.w3.org/Graphics/SVG/1.1/DTD/svg11.dtd"><svg t="1553437546253" class="icon" style="" viewBox="0 0 1024 1024" version="1.1" xmlns="http://www.w3.org/2000/svg" p-id="1286" xmlns:xlink="http://www.w3.org/1999/xlink" width="200" height="200"><defs><style type="text/css"></style></defs><path d="M521.168312 357.51965l-18.337647 0c-36.69883 0-66.556858 29.857005-66.556858 66.554812l0 43.962258 151.449317 0 0-43.962258C587.723124 387.376655 557.868165 357.51965 521.168312 357.51965z" p-id="1287" fill="#ffffff"></path><path d="M511.998465 153.3629c-195.543581 0-354.063945 158.520363-354.063945 354.064968s158.520363 354.064968 354.063945 354.064968c195.545628 0 354.065991-158.520363 354.065991-354.064968S707.544093 153.3629 511.998465 153.3629zM682.371784 669.261697c0 15.954367-13.053294 29.007661-29.006637 29.007661l-282.730293 0c-15.953344 0-29.008684-13.053294-29.008684-29.007661l0-172.21834c0-15.954367 13.05534-29.007661 29.008684-29.007661l24.707728 0 0-43.962258c0-59.268872 48.219211-107.48706 107.489106-107.48706l18.337647 0c59.267848 0 107.48706 48.218188 107.48706 107.48706l0 43.962258 24.708751 0c15.953344 0 29.006637 13.053294 29.006637 29.007661L682.371784 669.261697z" p-id="1288" fill="#ffffff"></path></svg>